<svg xmlns="http://www.w3.org/2000/svg" version="1.1" xmlns:xlink="http://www.w3.org/1999/xlink" xmlns:svgjs="http://svgjs.dev/svgjs" viewBox="0 0 1422 800" opacity="0.94"><defs><linearGradient x1="50%" y1="0%" x2="50%" y2="100%" id="oooscillate-grad"><stop stop-color="hsl(167, 72%, 60%)" stop-opacity="1" offset="0%"></stop><stop stop-color="hsl(167, 72%, 60%)" stop-opacity="1" offset="100%"></stop></linearGradient></defs><g stroke-width="1" stroke="url(#oooscillate-grad)" fill="none" stroke-linecap="round"><path d="M 0 825 Q 355.5 245 711 400 Q 1066.5 555 1422 825" opacity="0.74"></path><path d="M 0 800 Q 355.5 245 711 400 Q 1066.5 555 1422 800" opacity="0.55"></path><path d="M 0 775 Q 355.5 245 711 400 Q 1066.5 555 1422 775" opacity="0.17"></path><path d="M 0 750 Q 355.5 245 711 400 Q 1066.5 555 1422 750" opacity="0.57"></path><path d="M 0 725 Q 355.5 245 711 400 Q 1066.5 555 1422 725" opacity="0.49"></path><path d="M 0 700 Q 355.5 245 711 400 Q 1066.5 555 1422 700" opacity="0.39"></path><path d="M 0 675 Q 355.5 245 711 400 Q 1066.5 555 1422 675" opacity="0.94"></path><path d="M 0 650 Q 355.5 245 711 400 Q 1066.5 555 1422 650" opacity="0.86"></path><path d="M 0 625 Q 355.5 245 711 400 Q 1066.5 555 1422 625" opacity="0.51"></path><path d="M 0 600 Q 355.5 245 711 400 Q 1066.5 555 1422 600" opacity="0.83"></path><path d="M 0 575 Q 355.5 245 711 400 Q 1066.5 555 1422 575" opacity="0.91"></path><path d="M 0 550 Q 355.5 245 711 400 Q 1066.5 555 1422 550" opacity="0.47"></path><path d="M 0 525 Q 355.5 245 711 400 Q 1066.5 555 1422 525" opacity="0.83"></path><path d="M 0 500 Q 355.5 245 711 400 Q 1066.5 555 1422 500" opacity="0.10"></path><path d="M 0 475 Q 355.5 245 711 400 Q 1066.5 555 1422 475" opacity="0.62"></path><path d="M 0 450 Q 355.5 245 711 400 Q 1066.5 555 1422 450" opacity="0.97"></path><path d="M 0 425 Q 355.5 245 711 400 Q 1066.5 555 1422 425" opacity="0.72"></path><path d="M 0 400 Q 355.5 245 711 400 Q 1066.5 555 1422 400" opacity="0.21"></path><path d="M 0 375 Q 355.5 245 711 400 Q 1066.5 555 1422 375" opacity="0.41"></path><path d="M 0 350 Q 355.5 245 711 400 Q 1066.5 555 1422 350" opacity="0.99"></path><path d="M 0 325 Q 355.5 245 711 400 Q 1066.5 555 1422 325" opacity="0.99"></path><path d="M 0 300 Q 355.5 245 711 400 Q 1066.5 555 1422 300" opacity="0.57"></path><path d="M 0 275 Q 355.5 245 711 400 Q 1066.5 555 1422 275" opacity="0.67"></path><path d="M 0 250 Q 355.5 245 711 400 Q 1066.5 555 1422 250" opacity="0.86"></path><path d="M 0 225 Q 355.5 245 711 400 Q 1066.5 555 1422 225" opacity="0.67"></path><path d="M 0 200 Q 355.5 245 711 400 Q 1066.5 555 1422 200" opacity="0.88"></path><path d="M 0 175 Q 355.5 245 711 400 Q 1066.5 555 1422 175" opacity="0.07"></path><path d="M 0 150 Q 355.5 245 711 400 Q 1066.5 555 1422 150" opacity="0.51"></path><path d="M 0 125 Q 355.5 245 711 400 Q 1066.5 555 1422 125" opacity="0.28"></path><path d="M 0 100 Q 355.5 245 711 400 Q 1066.5 555 1422 100" opacity="0.54"></path><path d="M 0 75 Q 355.5 245 711 400 Q 1066.5 555 1422 75" opacity="0.91"></path><path d="M 0 50 Q 355.5 245 711 400 Q 1066.5 555 1422 50" opacity="0.25"></path></g></svg>